<svg width="802" height="331" viewBox="0 0 802 331" fill="none" xmlns="http://www.w3.org/2000/svg">
<path fill-rule="evenodd" clip-rule="evenodd" d="M463.928 177.7L463.152 260.981L428.464 260.45L428.206 244.802L418.369 239.232L407.756 244.006L408.015 247.189L407.238 260.45L393.777 261.511L389.118 263.898V251.698L378.246 251.167L375.657 252.494L373.068 247.72L373.327 196.796C373.327 196.796 373.845 192.553 373.327 191.757C373.068 190.962 365.303 187.514 364.785 187.779C364.267 188.044 356.76 190.696 356.76 190.696C356.76 190.696 355.984 191.757 355.725 192.818C355.466 193.879 356.501 196.796 356.76 197.327C356.76 197.857 356.501 249.841 356.501 249.841L351.324 258.329V229.684L341.487 220.136L341.229 199.449L339.675 199.183L339.158 180.618H337.863L337.605 199.714L329.321 206.079L326.215 207.671L325.697 202.897C325.697 202.897 314.307 202.101 313.53 201.836C312.754 201.571 304.729 206.079 304.729 206.079L304.47 213.771C304.47 213.771 304.212 213.771 302.917 212.975C301.623 212.179 299.552 212.445 299.552 212.445L299.293 211.119C299.293 211.119 299.811 210.323 299.811 209.262C299.552 207.936 299.293 207.936 299.293 207.936L299.552 205.549C299.552 205.549 300.07 203.692 299.811 202.897C299.552 202.101 298.775 201.836 298.775 201.836V193.614H297.481L297.222 201.836C297.222 201.836 296.187 202.366 295.928 203.162C295.669 204.223 296.446 205.018 296.446 205.018V207.14C296.446 207.14 295.669 207.671 295.669 208.732C295.669 209.792 296.446 210.588 296.446 210.588V212.71C296.446 212.71 293.598 213.24 292.304 214.036C291.01 214.832 288.939 217.484 288.939 217.484C288.939 217.484 283.503 218.545 283.244 219.075C282.985 219.606 284.279 221.197 284.279 221.197H278.584L278.067 224.91L272.631 225.175L272.113 250.637H268.748L268.23 240.028L265.9 239.763L265.641 231.276L244.932 231.01L242.085 232.337V301.825L231.731 301.03L228.107 296.521L222.929 295.725L215.422 283.525C215.422 283.525 215.681 280.873 214.905 279.546C214.128 278.22 212.575 278.22 212.575 278.22L203.256 262.042C203.256 262.042 203.774 261.511 204.809 259.92C205.845 258.329 209.986 249.311 208.174 240.028C206.362 231.01 200.667 232.071 200.667 232.071V141.365C200.667 141.365 203.774 140.038 206.103 135.53C208.174 130.756 208.692 122.799 206.103 118.025C203.515 113.251 198.338 111.394 198.338 111.394L198.079 104.764C198.079 104.764 199.114 103.172 199.114 101.581C199.114 99.9896 198.338 99.7244 198.338 99.7244L198.079 85.4022C198.079 85.4022 200.926 81.6891 200.408 79.0369C199.891 76.3846 198.855 75.5889 198.855 75.5889V75.0585C198.855 75.0585 199.891 73.4671 199.632 72.6715C199.373 71.8758 197.82 71.0801 197.82 71.0801L197.561 57.5537C197.561 57.5537 197.561 57.5537 197.82 57.2885C198.079 57.0232 198.596 55.9623 198.338 55.1667C198.079 54.371 197.302 53.5753 197.302 53.5753V53.3101V36.8662C197.302 36.8662 197.561 36.601 197.561 36.3357C197.82 36.0705 198.079 34.7444 197.82 34.2139C197.82 33.6835 196.784 33.153 196.784 33.153L196.267 0H194.972L194.455 33.4183C194.455 33.4183 193.678 33.6835 193.419 34.4792C193.16 35.2748 194.196 36.3357 194.196 36.3357V53.8405C194.196 53.8405 193.16 54.371 192.643 55.1667C192.384 56.2276 192.902 57.0232 193.16 57.2885C193.419 57.5537 193.16 71.6106 193.16 71.6106C193.16 71.6106 192.125 71.8758 191.348 73.2019C190.572 74.528 191.348 74.528 191.866 75.0585C192.384 75.5889 191.866 76.1194 191.866 76.1194C191.866 76.1194 191.607 76.3846 190.831 77.4455C190.054 78.5064 189.795 79.8325 190.054 81.6891C190.572 83.5457 191.866 85.4022 191.866 85.4022V100.255C191.866 100.255 191.348 100.52 190.831 101.05C190.313 101.846 190.313 101.846 190.313 102.907C190.313 103.968 191.09 104.233 191.09 104.233V111.659C191.09 111.659 185.395 114.312 183.324 117.494C181.253 120.677 178.664 124.655 180.476 131.286C182.547 137.917 185.653 139.243 185.653 139.243L185.395 233.132C185.395 233.132 182.806 234.193 180.994 237.111C179.182 240.028 177.37 243.741 177.888 248.515C178.405 253.289 179.7 256.472 179.7 256.472L168.31 256.737L167.792 300.764L154.849 300.499L155.108 281.934H147.601L147.342 283.525H143.718L143.459 299.173H135.952L134.917 277.425L118.35 271.059L110.325 270.794C110.325 270.794 106.96 266.285 101.783 263.898C96.6055 261.511 92.4637 262.307 92.4637 262.307L92.9814 254.085L90.6517 250.902L90.3928 241.619L89.0985 240.824L88.8396 234.989L82.3681 229.154L81.8504 216.954L81.0738 217.484L80.815 223.319L80.5561 224.38V228.889L74.0846 235.254V240.824L72.7903 241.619L72.5314 252.228L71.496 253.289V267.346L62.9536 272.12L54.9289 273.977C54.9289 273.977 54.6701 276.629 54.6701 277.159C54.6701 277.69 55.1878 278.22 55.1878 278.22C55.1878 278.22 55.1878 279.016 55.1878 279.546C55.1878 279.812 56.2232 281.138 56.2232 281.138C56.2232 281.138 56.4821 302.621 56.4821 303.947L49.234 303.151L47.9397 301.825C47.9397 301.825 41.7271 301.295 39.6562 302.356L33.1847 301.825C33.1847 301.825 30.5961 296.256 27.4897 294.399C24.3834 292.542 14.2879 292.808 14.2879 292.808C14.2879 292.808 4.45116 293.869 1.60369 295.725C-1.24377 297.316 0.56825 307.925 0.56825 307.925V331H802V307.925V306.069V252.228L792.681 251.167L790.351 249.576L786.727 249.841L786.21 255.942L781.291 256.207L778.961 258.329L778.703 240.558L775.855 237.376L767.313 237.641L767.054 241.885L762.135 242.415L762.394 244.537L759.288 245.067L759.029 250.107L753.852 250.637L754.111 270.529L749.451 269.998V228.093L742.203 226.767L734.179 227.828L732.625 235.784L729.001 236.315L729.519 245.333H725.636C725.636 245.333 724.601 267.611 724.86 268.142C725.118 268.672 723.306 269.733 723.306 269.733L717.353 268.407L716.835 223.584L706.48 217.749L686.289 216.954L686.031 181.413L666.875 174.518L642.024 178.231L642.283 165.765C642.283 165.765 635.553 163.378 622.869 164.174C610.184 164.704 601.642 165.5 601.642 165.5L601.124 295.46L594.653 294.664L593.876 283.26L590.77 277.425L591.288 146.669L584.04 142.956L570.061 145.608L564.884 147.2L565.402 193.083L561.778 192.553L561.26 148.526L558.93 147.995C558.93 147.995 558.412 144.812 557.118 142.16C555.824 139.508 551.941 137.386 551.941 137.386C551.941 137.386 551.164 131.286 550.905 130.225C550.647 129.164 549.87 128.634 549.87 128.634L549.093 114.312L548.317 128.634C548.317 128.634 547.54 129.695 547.281 130.49C547.023 131.021 546.764 137.386 546.764 137.386C546.764 137.386 543.916 138.978 542.104 141.099C540.033 143.221 540.033 147.465 540.033 147.465L537.445 148.526L536.668 178.231L536.15 192.022C536.15 192.022 530.456 195.205 529.938 195.205C529.42 195.47 529.679 213.506 529.679 213.506C529.679 213.506 519.324 208.997 515.442 209.262C511.818 209.527 506.64 210.588 506.64 210.588L506.899 185.392C506.899 185.392 488.261 191.227 487.744 191.227C486.19 191.757 463.928 177.7 463.928 177.7ZM194.455 142.691L194.714 150.647H191.09V142.956V141.895L194.455 142.691ZM194.196 159.93V166.561H190.572V158.869V157.808L194.196 159.93ZM193.678 174.783V181.413H190.054V173.722V172.661L193.678 174.783ZM193.937 189.635V196.266H190.313V188.309V187.248L193.937 189.635ZM194.196 205.284V211.914H190.572V204.223V203.162L194.196 205.284ZM193.937 220.667V227.297C193.937 227.297 190.831 227.297 190.572 227.297C190.313 227.297 190.313 219.606 190.313 219.606V218.545L193.937 220.667ZM212.316 285.912L217.493 296.256C217.493 296.256 210.763 298.112 210.504 298.643C210.504 299.173 199.891 299.173 199.891 299.173L199.632 295.725C199.632 295.725 209.986 285.647 210.504 285.116L210.763 284.851C210.763 284.851 210.763 284.851 211.281 285.116C211.539 285.647 212.316 285.912 212.316 285.912ZM209.21 280.873V282.729L200.15 291.747L199.632 265.755V264.163L209.21 280.873Z" fill="#0F172A"/>
</svg>
