<svg width="1439" height="211" viewBox="0 0 1439 211" fill="none" xmlns="http://www.w3.org/2000/svg">
<path fill-rule="evenodd" clip-rule="evenodd" d="M494.32 169.955L494 210.62H965L964.68 149.297L960.999 148.809L960.839 146.695L957.958 146.207L944.515 146.532L944.355 149.135L940.674 148.972V162.961L935.232 162.635L935.072 142.14L933.472 140.188L933.312 98.7105L930.271 97.0839L930.111 93.8307L927.23 93.5054L927.07 86.3484L925.79 85.6978V82.6072L924.19 81.7939L922.269 81.9566L922.109 85.8604L920.989 86.0231V93.8307H918.588V95.132L916.188 95.2946V98.5478H914.587V128.64H909.466V99.1984L907.545 98.5478V95.9452L905.465 95.2946V94.4813L903.864 93.8307H903.224L903.064 86.6737L902.104 86.1857L901.944 82.9326L900.183 82.1193H898.103V85.8604L896.983 86.0231V93.8307H894.422L894.102 98.7105L891.221 98.8731V116.44L890.421 116.766L890.581 139.375L889.301 139.538L888.821 133.031H884.339L884.179 140.188L882.579 140.514L882.739 142.628L881.459 142.791V168.003H878.258L877.298 132.381L874.097 132.218L873.937 123.597L870.896 123.435L870.736 119.043C870.736 119.043 869.616 117.742 866.895 116.928C864.174 116.115 860.013 116.278 859.693 116.603C859.533 116.928 859.693 121.483 859.693 121.483L856.492 121.808L856.332 128.314L849.771 128.477V127.338H841.288L841.128 162.473L838.408 162.635L838.088 165.888L835.207 166.051L835.047 111.886L827.525 110.259L806.88 111.073V117.416L806.24 117.742V147.671L799.838 147.833V152.062L797.117 152.225V158.894L796.477 159.219V183.618L791.036 183.456L790.556 141.002L770.71 140.676L770.55 145.394L763.989 145.556L763.829 143.93L736.622 143.767L734.381 144.255L734.541 166.214H731.821L731.661 169.792L728.94 169.63V131.568L726.699 131.405V130.592H724.779C724.779 130.592 725.259 118.067 723.819 114.976C722.378 111.886 717.737 108.145 713.256 105.542C708.775 102.94 706.374 100.012 704.614 96.4332C702.693 92.8547 703.173 85.2098 703.173 85.2098C703.173 85.2098 703.013 84.5592 702.853 84.3965C702.693 84.2338 702.533 84.2338 702.533 84.2338L702.853 160.521H698.212L697.732 148.159L695.491 147.671V144.58L692.771 144.255L692.611 140.839L683.648 129.128V127.664L683.328 127.338L683.168 123.109L683.328 122.947C683.328 122.947 683.328 122.296 683.328 122.133C683.328 121.971 683.008 121.971 683.008 121.971L682.848 120.832L682.688 115.952H682.528V120.832L682.368 121.971C682.368 121.971 682.048 121.971 681.888 122.133C681.888 122.133 681.728 122.296 681.728 122.459L681.888 122.947V127.501L681.408 127.664V128.802L679.327 131.893V123.76L677.567 123.597V118.717C677.567 118.717 677.887 118.555 677.887 118.23C677.887 117.904 677.407 117.742 677.247 117.254C677.087 116.766 675.646 115.464 675.646 115.464C675.646 115.464 675.646 114.488 675.486 114.163C675.486 114 673.566 113.675 673.566 113.675L673.406 111.886C673.406 111.886 673.886 111.56 673.886 111.398C673.886 111.235 672.926 111.235 672.926 111.235C672.926 111.235 672.766 109.771 671.165 107.169C669.565 104.404 667.964 104.566 667.964 104.566V103.265L667.004 102.126C666.844 102.126 666.204 103.265 666.204 103.265L666.044 104.566C666.044 104.566 664.123 105.542 662.683 107.657C661.243 109.771 661.083 111.398 661.083 111.398C661.083 111.398 659.962 111.398 659.802 111.56C659.642 111.723 660.282 111.886 660.282 111.886V113.512L656.281 114C656.281 114 655.001 114 655.001 114.163C655.001 114.326 655.481 114.651 655.481 114.651V116.766L654.201 116.928V117.904C654.201 117.904 653.721 117.904 653.561 117.904C653.561 117.904 653.561 118.067 653.401 118.067C653.401 118.229 653.721 118.717 653.721 118.717L653.881 124.248H653.401C653.401 124.248 653.081 124.248 653.081 124.411C653.081 124.573 653.721 125.061 653.721 125.061L653.881 130.754C653.881 130.754 653.241 130.754 653.241 130.917C653.241 131.08 653.881 131.568 653.881 131.568L654.041 162.147L653.721 163.774L652.76 165.238H649.4L648.599 142.791L647.639 142.466L647.319 139.212L646.679 138.887L646.519 134.983L640.437 131.242L638.037 131.08V128.965L634.036 128.64L633.716 120.181L626.514 119.856V116.115L625.233 115.627L618.352 115.79L618.192 116.603H611.15L610.99 118.88L606.669 119.043V118.555H601.227V120.507H597.546L597.386 119.531H590.665V122.296L589.224 122.459L589.064 138.724L572.42 139.375L572.26 134.983H567.139L566.979 131.893L522.807 132.056L522.647 135.471L521.367 135.634L521.207 152.713L508.884 153.038L508.404 170.606H494.32V169.955Z" fill="#0F172A"/>
<path fill-rule="evenodd" clip-rule="evenodd" d="M1007.39 184.743C1007.55 184.087 1007.55 175.243 1007.55 175.243L1012.18 174.916L1012.5 151.168L1014.89 151.004V147.892H1025.27V151.332L1028.3 152.151L1028.46 174.916L1032.77 175.08L1032.93 170.658L1034.53 170.494L1034.85 158.866L1046.5 158.538H1048.26L1047.94 124.144L1052.25 123.326L1052.57 117.102L1058.79 116.283L1063.9 117.266L1064.38 120.377L1067.25 120.214L1067.89 119.559L1073.64 120.214V123.489L1078.75 124.472L1078.91 125.946L1082.26 126.765L1082.42 127.911L1085.29 128.239V95.4831L1090.88 95.1555L1091.36 93.6815L1092.96 93.5177L1101.74 94.9918H1106.84L1116.9 97.6122L1117.06 99.9051L1122.81 101.215L1122.49 126.929L1124.24 127.584L1124.4 137.41L1129.51 138.393L1130.79 175.899L1133.34 176.226V177.864L1141.01 177.7L1142.28 174.916H1145.63L1145.79 167.218L1147.07 167.054L1147.23 161.65L1156.01 161.158L1156.33 111.37L1163.35 104.491L1163.67 97.1209L1179.96 95.3193L1182.03 96.302L1191.77 110.387L1192.09 128.566L1193.37 128.403L1198.15 129.549V132.333L1213 135.445V138.066L1214.44 138.393L1214.6 28.9889L1215.55 28.17L1220.34 28.3338C1220.34 28.3338 1222.1 23.5842 1222.1 23.4204C1222.1 23.2566 1221.94 2.94802 1221.94 2.94802L1222.9 0.327553L1223.38 0V45.8581L1224.01 46.5132V52.573L1229.28 52.9006L1229.6 57.3226C1229.6 57.3226 1232.95 56.8313 1234.71 56.8313C1236.63 56.8313 1241.42 58.4691 1241.42 58.4691V69.2785L1246.04 69.1147H1253.23L1255.3 70.0974L1255.62 95.3193L1257.06 95.1555C1257.06 95.1555 1256.42 93.1902 1257.22 92.8626C1258.18 92.5351 1260.57 92.3713 1260.57 92.3713C1260.57 92.3713 1260.25 70.2611 1260.73 69.9336C1261.05 69.606 1261.37 69.606 1261.69 69.606C1262.01 69.606 1262.17 70.0974 1262.17 70.0974L1262.33 92.2075C1262.33 92.2075 1265.2 92.3713 1265.68 93.0264C1266.32 93.6815 1266.16 94.6642 1266.16 94.6642C1266.16 94.6642 1268.71 95.1555 1269.03 95.8107C1269.35 96.4658 1269.35 97.6122 1269.35 97.6122C1269.35 97.6122 1272.22 97.9398 1272.38 98.7587C1272.7 99.5776 1272.7 106.62 1272.7 106.62L1281.64 109.896L1281.16 146.091L1292.34 145.436L1301.12 147.729L1301.44 180.812H1302.87L1302.71 163.943L1307.82 162.469L1307.66 157.228H1316.28L1316.6 162.469L1324.58 163.124V165.744L1327.3 163.943L1336.24 169.02L1336.4 178.191L1345.82 177.864V172.459C1345.82 172.459 1349.33 171.477 1350.76 171.477C1352.2 171.477 1358.59 171.64 1358.59 171.64L1358.43 155.754C1358.43 155.754 1357.31 154.116 1357.47 153.788C1357.63 153.461 1364.49 149.366 1364.49 149.366L1364.65 134.135L1371.04 132.17L1390.83 133.152L1391.15 176.226L1392.75 176.062L1397.06 172.623L1401.37 175.407L1413.5 175.08L1413.34 172.132C1413.34 172.132 1411.59 172.132 1411.74 171.968C1411.9 171.804 1413.66 170.33 1413.66 170.33L1416.53 156.573L1419.41 168.037L1425.15 144.289L1426.11 144.125L1432.5 167.546L1433.3 167.382L1435.53 157.064L1438.56 169.839L1440 171.477L1438.72 173.278L1439.04 210.62H965V195.283V180.969L1007.39 184.743Z" fill="#0F172A"/>
<path fill-rule="evenodd" clip-rule="evenodd" d="M286.34 115.914L285.861 167.363L264.451 167.035L264.292 157.368L258.22 153.927L251.67 156.877L251.829 158.843L251.35 167.035L243.042 167.691L240.166 169.165V161.628L233.456 161.301L231.858 162.12L230.26 159.17L230.42 127.711C230.42 127.711 230.74 125.09 230.42 124.598C230.26 124.106 225.467 121.976 225.148 122.14C224.828 122.304 220.195 123.943 220.195 123.943C220.195 123.943 219.716 124.598 219.556 125.253C219.396 125.909 220.035 127.711 220.195 128.039C220.195 128.367 220.035 160.481 220.035 160.481L216.84 165.725V148.029L210.768 142.13L210.609 129.35L209.65 129.186L209.33 117.716H208.532L208.372 129.513L203.259 133.446L201.342 134.429L201.022 131.48C201.022 131.48 193.993 130.988 193.513 130.824C193.034 130.66 188.081 133.446 188.081 133.446L187.921 138.198C187.921 138.198 187.761 138.198 186.963 137.706C186.164 137.214 184.886 137.378 184.886 137.378L184.726 136.559C184.726 136.559 185.045 136.068 185.045 135.412C184.886 134.593 184.726 134.593 184.726 134.593L184.886 133.118C184.886 133.118 185.205 131.971 185.045 131.48C184.886 130.988 184.406 130.824 184.406 130.824V125.745H183.607L183.448 130.824C183.448 130.824 182.809 131.152 182.649 131.644C182.489 132.299 182.968 132.79 182.968 132.79V134.101C182.968 134.101 182.489 134.429 182.489 135.084C182.489 135.74 182.968 136.231 182.968 136.231V137.542C182.968 137.542 181.211 137.87 180.412 138.361C179.613 138.853 178.335 140.491 178.335 140.491C178.335 140.491 174.98 141.147 174.82 141.475C174.66 141.802 175.459 142.785 175.459 142.785H171.944L171.625 145.079L168.269 145.243L167.95 160.973H165.873L165.553 154.419L164.115 154.255L163.956 149.012L151.174 148.848L149.417 149.667V192.596L143.026 192.104L140.789 189.319L137.594 188.827L132.96 181.29C132.96 181.29 133.12 179.652 132.641 178.833C132.161 178.013 131.203 178.013 131.203 178.013L125.451 168.018C125.451 168.018 125.771 167.691 126.41 166.708C127.049 165.725 129.605 160.154 128.487 154.419C127.368 148.848 123.853 149.503 123.853 149.503V93.4663C123.853 93.4663 125.771 92.647 127.208 89.8616C128.487 86.9122 128.806 81.9967 127.208 79.0474C125.611 76.0981 122.415 74.9511 122.415 74.9511L122.256 70.8549C122.256 70.8549 122.895 69.8718 122.895 68.8887C122.895 67.9056 122.415 67.7417 122.415 67.7417L122.256 58.8938C122.256 58.8938 124.013 56.5998 123.694 54.9613C123.374 53.3228 122.735 52.8313 122.735 52.8313V52.5036C122.735 52.5036 123.374 51.5205 123.214 51.0289C123.054 50.5374 122.096 50.0458 122.096 50.0458L121.936 41.6894C121.936 41.6894 121.936 41.6894 122.096 41.5256C122.256 41.3617 122.575 40.7063 122.415 40.2148C122.256 39.7232 121.776 39.2317 121.776 39.2317V39.0678V28.9091C121.776 28.9091 121.936 28.7452 121.936 28.5814C122.096 28.4175 122.256 27.5982 122.096 27.2705C122.096 26.9428 121.457 26.6151 121.457 26.6151L121.137 6.13379H120.338L120.019 26.779C120.019 26.779 119.539 26.9428 119.38 27.4344C119.22 27.9259 119.859 28.5814 119.859 28.5814V39.3955C119.859 39.3955 119.22 39.7232 118.9 40.2148C118.741 40.8702 119.06 41.3617 119.22 41.5256C119.38 41.6894 119.22 50.3735 119.22 50.3735C119.22 50.3735 118.581 50.5374 118.102 51.3566C117.622 52.1759 118.102 52.1759 118.421 52.5036C118.741 52.8313 118.421 53.159 118.421 53.159C118.421 53.159 118.261 53.3228 117.782 53.9782C117.303 54.6336 117.143 55.4529 117.303 56.5998C117.622 57.7468 118.421 58.8938 118.421 58.8938V68.0694C118.421 68.0694 118.102 68.2333 117.782 68.561C117.462 69.0525 117.462 69.0525 117.462 69.7079C117.462 70.3633 117.942 70.5272 117.942 70.5272V75.115C117.942 75.115 114.427 76.7535 113.149 78.7197C111.87 80.6859 110.273 83.1437 111.391 87.24C112.669 91.3362 114.587 92.1555 114.587 92.1555L114.427 150.159C114.427 150.159 112.829 150.814 111.711 152.616C110.592 154.419 109.474 156.713 109.793 159.662C110.113 162.611 110.912 164.578 110.912 164.578L103.882 164.741L103.562 191.941L95.5739 191.777L95.7337 180.307H91.1003L90.9406 181.29H88.7038L88.544 190.958H83.9107L83.2716 177.522L73.0463 173.589L68.0934 173.425C68.0934 173.425 66.0164 170.64 62.821 169.165C59.6256 167.691 57.0692 168.182 57.0692 168.182L57.3888 163.103L55.9508 161.137L55.7911 155.402L54.9922 154.91L54.8324 151.306L50.8382 147.701L50.5186 140.164L50.0393 140.491L49.8796 144.096L49.7198 144.752V147.537L45.7255 151.469V154.91L44.9267 155.402L44.7669 161.956L44.1278 162.611V171.295L38.8554 174.245L33.9025 175.392C33.9025 175.392 33.7428 177.03 33.7428 177.358C33.7428 177.686 34.0623 178.013 34.0623 178.013C34.0623 178.013 34.0623 178.505 34.0623 178.833C34.0623 178.996 34.7014 179.816 34.7014 179.816C34.7014 179.816 34.8611 193.088 34.8611 193.907L30.3876 193.415L29.5887 192.596C29.5887 192.596 25.7542 192.268 24.4761 192.924L20.4818 192.596C20.4818 192.596 18.8841 189.155 16.9669 188.008C15.0496 186.861 8.81856 187.025 8.81856 187.025C8.81856 187.025 2.74728 187.681 0.98981 188.827C-0.767665 189.811 0.350728 196.365 0.350728 196.365V210.62H495V196.365V195.218V161.956L489.248 161.301L487.81 160.317L485.574 160.481L485.254 164.25L482.218 164.414L480.78 165.725L480.621 154.746L478.863 152.78L473.591 152.944L473.431 155.566L470.395 155.893L470.555 157.204L468.638 157.532L468.478 160.645L465.283 160.973L465.442 173.262L462.567 172.934V147.046L458.093 146.226L453.14 146.882L452.182 151.797L449.945 152.125L450.264 157.696H447.868C447.868 157.696 447.229 171.459 447.388 171.787C447.548 172.115 446.43 172.77 446.43 172.77L442.755 171.951L442.435 144.26L436.045 140.655L423.583 140.164L423.423 118.208L411.6 113.948L396.262 116.242L396.422 108.541C396.422 108.541 392.268 107.066 384.439 107.557C376.61 107.885 371.338 108.377 371.338 108.377L371.018 188.664L367.024 188.172L366.545 181.126L364.627 177.522L364.947 96.7433L360.473 94.4494L351.846 96.0879L348.65 97.071L348.97 125.417L346.733 125.089L346.414 97.8903L344.976 97.5626C344.976 97.5626 344.656 95.5963 343.857 93.9578C343.058 92.3193 340.662 91.0085 340.662 91.0085C340.662 91.0085 340.182 87.24 340.023 86.5845C339.863 85.9291 339.384 85.6014 339.384 85.6014L338.904 76.7535L338.425 85.6014C338.425 85.6014 337.946 86.2568 337.786 86.7484C337.626 87.0761 337.466 91.0085 337.466 91.0085C337.466 91.0085 335.709 91.9916 334.59 93.3024C333.312 94.6132 333.312 97.2348 333.312 97.2348L331.715 97.8903L331.235 116.242L330.916 124.762C330.916 124.762 327.401 126.728 327.081 126.728C326.762 126.892 326.922 138.034 326.922 138.034C326.922 138.034 320.531 135.248 318.134 135.412C315.897 135.576 312.702 136.231 312.702 136.231L312.862 120.666C312.862 120.666 301.358 124.27 301.039 124.27C300.08 124.598 286.34 115.914 286.34 115.914ZM120.019 94.2855L120.179 99.2011H117.942V94.4494V93.794L120.019 94.2855ZM119.859 104.936V109.032H117.622V104.28V103.625L119.859 104.936ZM119.539 114.111V118.208H117.303V113.456V112.801L119.539 114.111ZM119.699 123.287V127.383H117.462V122.468V121.812L119.699 123.287ZM119.859 132.954V137.051H117.622V132.299V131.644L119.859 132.954ZM119.699 142.458V146.554C119.699 146.554 117.782 146.554 117.622 146.554C117.462 146.554 117.462 141.802 117.462 141.802V141.147L119.699 142.458ZM131.043 182.765L134.238 189.155C134.238 189.155 130.084 190.302 129.925 190.63C129.925 190.958 123.374 190.958 123.374 190.958L123.214 188.827C123.214 188.827 129.605 182.601 129.925 182.273L130.084 182.11C130.084 182.11 130.084 182.11 130.404 182.273C130.564 182.601 131.043 182.765 131.043 182.765ZM129.126 179.652V180.799L123.534 186.37L123.214 170.312V169.329L129.126 179.652Z" fill="#0F172A"/>
</svg>
